<svg id="ckt-feature-build-it-yourself" xmlns="http://www.w3.org/2000/svg" xmlns:xlink="http://www.w3.org/1999/xlink" viewBox="0 0 180 136"><defs><style>.cls-1{fill:#47454d;}.cls-2{clip-path:url(#clip-path);}.cls-3{fill:#ee3d48;}.cls-4{fill:#9c1c30;}.cls-5{fill:#d12027;}.cls-6{fill:#797b7d;}.cls-7{fill:#b7b9bb;}.cls-8{fill:#323138;}.cls-9{fill:#d9dad9;}.cls-10{fill:#4db757;}.cls-11{fill:#edeced;}.cls-12{fill:#3d3c43;}.cls-13{fill:#27262d;}.cls-14{fill:#6b6974;}.cls-15{fill:#dedcd7;}.cls-16{fill:#40444d;}.cls-17{fill:#45494a;}.cls-18{fill:#b7b7b7;}.cls-19{fill:#fff;}.cls-20{fill:#4e4d56;}</style><clipPath id="clip-path"><rect class="cls-1" x="121.51" y="10.93" width="40.33" height="58.66" rx="1.73" ry="1.73" transform="translate(2.74 89.15) rotate(-35.25)"/></clipPath></defs><title>pk-feature-build-it-yourself</title><rect class="cls-1" x="121.51" y="10.93" width="40.33" height="58.66" rx="1.73" ry="1.73" transform="translate(2.74 89.15) rotate(-35.25)"/><g class="cls-2"><rect class="cls-3" x="117.65" y="14.32" width="47.66" height="51.73" transform="matrix(0.82, -0.58, 0.58, 0.82, 2.75, 89.02)"/><path class="cls-4" d="M165.24,49.2a.41.41,0,0,1,.09-.57l1.46-1a.4.4,0,0,1,.56.1.41.41,0,0,1-.09.57l-1.46,1A.4.4,0,0,1,165.24,49.2Z"/><path class="cls-4" d="M161.78,51.64a.39.39,0,0,1,.1-.56l1.45-1a.41.41,0,1,1,.47.66l-1.45,1A.4.4,0,0,1,161.78,51.64Z"/><path class="cls-4" d="M163,51.86l-1-1.46a.41.41,0,0,1,.1-.57.41.41,0,0,1,.57.1l1,1.46a.4.4,0,0,1-.09.56A.41.41,0,0,1,163,51.86Z"/></g><g id="Bolt"><path class="cls-4" d="M146,47.94l-.43-10.18a1.4,1.4,0,0,0-2-1.19l-1.73.84-2.51-5.16a1.38,1.38,0,0,0-1.61-.73,1.27,1.27,0,0,0-.49.25,1.35,1.35,0,0,0-.53,1.19l.69,9.25a1.38,1.38,0,0,0,2,1.15l1.15-.56,2.82,5.81a1.41,1.41,0,0,0,1.6.74,1.35,1.35,0,0,0,.51-.25,1.42,1.42,0,0,0,.54-1.16"/></g><rect class="cls-5" x="30.82" y="54.69" width="3.31" height="2.99" transform="translate(70.81 108.54) rotate(173.81)"/><path class="cls-3" d="M28.2,53.2H30a1.07,1.07,0,0,1,1.07,1.07v4.31A1.07,1.07,0,0,1,30,59.66H28.2a0,0,0,0,1,0,0V53.2A0,0,0,0,1,28.2,53.2Z" transform="translate(65.22 109.34) rotate(173.81)"/><rect class="cls-6" x="43.32" y="54.11" width="0.59" height="2.55" transform="translate(-5.72 5.02) rotate(-6.19)"/><rect class="cls-6" x="42.23" y="54.23" width="0.59" height="2.55" transform="translate(-5.73 4.91) rotate(-6.19)"/><path class="cls-7" d="M41.65,52.1h2.4a.43.43,0,0,1,.43.43v2.28a0,0,0,0,1,0,0H41.22a0,0,0,0,1,0,0V52.53A.43.43,0,0,1,41.65,52.1Z" transform="translate(91.22 101.98) rotate(173.81)"/><path class="cls-8" d="M37.92,34.76l.7,6.53,5.76-.62-.71-6.54-.78-.62L38.54,34Z"/><rect class="cls-9" x="38.97" y="43.62" width="6.79" height="10.64" rx="1.03" ry="1.03" transform="translate(86.45 1.55) rotate(83.81)"/><rect class="cls-10" x="37.61" y="46.1" width="9.51" height="5.67" rx="0.47" ry="0.47" transform="translate(89.75 93.02) rotate(173.81)"/><rect class="cls-10" x="39.74" y="45.56" width="4.69" height="1.6" transform="translate(88.92 87.91) rotate(173.81)"/><path class="cls-9" d="M37.56,40.74H46a0,0,0,0,1,0,0V45.1a.47.47,0,0,1-.47.47H38a.47.47,0,0,1-.47-.47V40.74a0,0,0,0,1,0,0Z" transform="matrix(-0.99, 0.11, -0.11, -0.99, 87.99, 81.56)"/><polygon class="cls-9" points="37.75 45.11 46.26 45.1 46.52 44.72 37.34 44.73 37.75 45.11"/><polygon class="cls-11" points="46.19 44.34 37.67 44.34 37.34 44.73 46.52 44.72 46.19 44.34"/><rect class="cls-9" x="120.54" y="31.19" width="12.77" height="13.71" rx="0.6" ry="0.6" transform="translate(257.21 62.19) rotate(173.81)"/><rect class="cls-9" x="98.04" y="33.63" width="12.77" height="13.71" rx="0.6" ry="0.6" transform="translate(212.6 69.48) rotate(173.81)"/><rect class="cls-9" x="75.54" y="36.07" width="12.77" height="13.71" rx="0.6" ry="0.6" transform="translate(167.99 76.76) rotate(173.81)"/><path class="cls-12" d="M81,62.85l3.55,32.78a1.88,1.88,0,0,0,2.07,1.66l54.49-5.9a1.88,1.88,0,0,0,1.66-2.07l-3.28-30.26a1.86,1.86,0,0,0-.76-1.31l-3-2.22a1.88,1.88,0,0,0-1.31-.36L82.64,60.78A1.88,1.88,0,0,0,81,62.85Z"/><rect class="cls-13" x="94.93" y="65.71" width="19.67" height="19.67" rx="0.94" ry="0.94" transform="translate(217.05 139.35) rotate(173.81)"/><rect class="cls-13" x="120.37" y="77.22" width="9.7" height="12.9" rx="0.94" ry="0.94" transform="translate(258.73 153.37) rotate(173.81)"/><path class="cls-12" d="M39,53.2l.32,3,1-.1a1,1,0,0,1,1.13.9L46,99.69,77,96.34,72.32,53.61a1,1,0,0,1,.91-1.13l1.94-.21-.32-3Z"/><rect class="cls-9" x="36.91" y="92.69" width="3.59" height="5.74" rx="0.37" ry="0.37" transform="translate(87.48 186.4) rotate(173.81)"/><path class="cls-14" d="M34.15,52.43h2.58a0,0,0,0,1,0,0v6.79a0,0,0,0,1,0,0H34.15a.46.46,0,0,1-.46-.46V52.89a.46.46,0,0,1,.46-.46Z" transform="matrix(-0.99, 0.11, -0.11, -0.99, 76.23, 107.54)"/><rect class="cls-15" x="63.5" y="42.35" width="3.52" height="2.3" rx="0.31" ry="0.31" transform="translate(134.84 79.72) rotate(173.81)"/><path class="cls-14" d="M42.17,97.82l.29,2.65a.93.93,0,0,0,1,.83l36-3.9a.93.93,0,0,0,.83-1L80,93.72a.38.38,0,0,0-.41-.33l-3.54.39a.37.37,0,0,0-.33.4l.17,1.57a.36.36,0,0,1-.32.41L47,99.25a.35.35,0,0,1-.4-.32l-.17-1.57A.37.37,0,0,0,46,97l-3.54.38A.38.38,0,0,0,42.17,97.82Z"/><path class="cls-14" d="M38.27,52.65l.42,3.87a.37.37,0,0,0,.41.33l.91-.1a.37.37,0,0,0,.33-.41l-.24-2.22a.36.36,0,0,1,.32-.41l32.49-3.52a.37.37,0,0,1,.41.33l.24,2.22a.36.36,0,0,0,.4.33l.92-.1a.35.35,0,0,0,.32-.4l-.42-3.88a.35.35,0,0,0-.4-.32L38.6,52.24A.38.38,0,0,0,38.27,52.65Z"/><rect class="cls-16" x="35.54" y="38.7" width="106.98" height="62.86" rx="1.55" ry="1.55" transform="translate(185.1 130.25) rotate(173.81)"/><rect class="cls-9" x="124.38" y="88.23" width="5.55" height="5.55" rx="0.43" ry="0.43" transform="translate(-8.96 14.04) rotate(-6.11)"/><rect class="cls-17" x="125.52" y="89.36" width="3.26" height="3.26" rx="1.63" ry="1.63" transform="translate(204.1 -45.12) rotate(83.89)"/><rect class="cls-9" x="135.26" y="87.05" width="5.55" height="5.55" rx="0.43" ry="0.43" transform="translate(-8.77 15.19) rotate(-6.11)"/><rect class="cls-17" x="136.41" y="88.18" width="3.26" height="3.26" rx="1.63" ry="1.63" transform="translate(212.65 -57) rotate(83.89)"/><rect class="cls-18" x="36.16" y="46.85" width="5.06" height="4.88" rx="0.4" ry="0.4" transform="translate(-5.09 4.46) rotate(-6.19)"/><rect class="cls-18" x="42.51" y="46.16" width="5.06" height="4.88" rx="0.4" ry="0.4" transform="translate(-4.98 5.14) rotate(-6.19)"/><rect class="cls-18" x="48.86" y="45.47" width="5.06" height="4.88" rx="0.4" ry="0.4" transform="translate(-4.86 5.82) rotate(-6.19)"/><rect class="cls-18" x="55.2" y="44.78" width="5.06" height="4.88" rx="0.4" ry="0.4" transform="translate(-4.75 6.5) rotate(-6.19)"/><rect class="cls-18" x="61.55" y="44.1" width="5.06" height="4.88" rx="0.4" ry="0.4" transform="translate(-4.64 7.18) rotate(-6.19)"/><rect class="cls-18" x="67.89" y="43.41" width="5.06" height="4.88" rx="0.4" ry="0.4" transform="translate(-4.53 7.86) rotate(-6.19)"/><rect class="cls-18" x="74.24" y="42.72" width="5.06" height="4.88" rx="0.4" ry="0.4" transform="translate(-4.42 8.54) rotate(-6.19)"/><rect class="cls-18" x="80.59" y="42.03" width="5.06" height="4.88" rx="0.4" ry="0.4" transform="translate(-4.31 9.22) rotate(-6.19)"/><rect class="cls-18" x="93.28" y="40.66" width="5.06" height="4.88" rx="0.4" ry="0.4" transform="translate(-4.09 10.58) rotate(-6.19)"/><rect class="cls-18" x="86.93" y="41.34" width="5.06" height="4.88" rx="0.4" ry="0.4" transform="translate(-4.2 9.9) rotate(-6.19)"/><rect class="cls-18" x="99.62" y="39.97" width="5.06" height="4.88" rx="0.4" ry="0.4" transform="translate(-3.98 11.26) rotate(-6.19)"/><rect class="cls-18" x="105.97" y="39.28" width="5.06" height="4.88" rx="0.4" ry="0.4" transform="translate(-3.86 11.94) rotate(-6.19)"/><rect class="cls-18" x="112.32" y="38.59" width="5.06" height="4.88" rx="0.4" ry="0.4" transform="translate(-3.75 12.62) rotate(-6.19)"/><rect class="cls-18" x="118.66" y="37.9" width="5.06" height="4.88" rx="0.4" ry="0.4" transform="translate(-3.64 13.3) rotate(-6.19)"/><rect class="cls-18" x="125.01" y="37.22" width="5.06" height="4.88" rx="0.4" ry="0.4" transform="translate(-3.53 13.98) rotate(-6.19)"/><rect class="cls-18" x="131.35" y="36.53" width="5.06" height="4.88" rx="0.4" ry="0.4" transform="translate(-3.42 14.66) rotate(-6.19)"/><rect class="cls-18" x="36.81" y="52.84" width="5.06" height="4.88" rx="0.4" ry="0.4" transform="matrix(0.99, -0.11, 0.11, 0.99, -5.73, 4.56)"/><rect class="cls-18" x="43.16" y="52.15" width="5.06" height="4.88" rx="0.4" ry="0.4" transform="translate(-5.62 5.24) rotate(-6.19)"/><rect class="cls-18" x="49.51" y="51.46" width="5.06" height="4.88" rx="0.4" ry="0.4" transform="translate(-5.51 5.92) rotate(-6.19)"/><rect class="cls-18" x="55.85" y="50.77" width="5.06" height="4.88" rx="0.4" ry="0.4" transform="translate(-5.4 6.6) rotate(-6.19)"/><rect class="cls-18" x="62.2" y="50.09" width="5.06" height="4.88" rx="0.4" ry="0.4" transform="translate(-5.28 7.28) rotate(-6.19)"/><rect class="cls-18" x="68.54" y="49.4" width="5.06" height="4.88" rx="0.4" ry="0.4" transform="translate(-5.17 7.96) rotate(-6.19)"/><rect class="cls-18" x="74.89" y="48.71" width="5.06" height="4.88" rx="0.4" ry="0.4" transform="translate(-5.06 8.64) rotate(-6.19)"/><rect class="cls-18" x="81.24" y="48.02" width="5.06" height="4.88" rx="0.4" ry="0.4" transform="translate(-4.95 9.32) rotate(-6.19)"/><rect class="cls-18" x="93.93" y="46.65" width="5.06" height="4.88" rx="0.4" ry="0.4" transform="translate(-4.73 10.68) rotate(-6.19)"/><rect class="cls-18" x="87.58" y="47.33" width="5.06" height="4.88" rx="0.4" ry="0.4" transform="translate(-4.84 10) rotate(-6.19)"/><rect class="cls-18" x="100.27" y="45.96" width="5.06" height="4.88" rx="0.4" ry="0.4" transform="translate(-4.62 11.36) rotate(-6.19)"/><rect class="cls-18" x="106.62" y="45.27" width="5.06" height="4.88" rx="0.4" ry="0.4" transform="translate(-4.51 12.04) rotate(-6.19)"/><rect class="cls-18" x="112.97" y="44.58" width="5.06" height="4.88" rx="0.4" ry="0.4" transform="translate(-4.4 12.72) rotate(-6.19)"/><rect class="cls-18" x="119.31" y="43.9" width="5.06" height="4.88" rx="0.4" ry="0.4" transform="translate(-4.28 13.4) rotate(-6.19)"/><rect class="cls-18" x="125.66" y="43.21" width="5.06" height="4.88" rx="0.4" ry="0.4" transform="translate(-4.17 14.08) rotate(-6.19)"/><rect class="cls-18" x="132" y="42.52" width="5.06" height="4.88" rx="0.4" ry="0.4" transform="translate(-4.06 14.76) rotate(-6.19)"/><rect class="cls-18" x="37.46" y="58.83" width="5.06" height="4.88" rx="0.4" ry="0.4" transform="translate(-6.37 4.67) rotate(-6.19)"/><rect class="cls-18" x="43.81" y="58.14" width="5.06" height="4.88" rx="0.4" ry="0.4" transform="translate(-6.26 5.35) rotate(-6.19)"/><rect class="cls-18" x="50.15" y="57.45" width="5.06" height="4.88" rx="0.4" ry="0.4" transform="translate(-6.15 6.03) rotate(-6.19)"/><rect class="cls-18" x="56.5" y="56.77" width="5.06" height="4.88" rx="0.4" ry="0.4" transform="translate(-6.04 6.71) rotate(-6.19)"/><rect class="cls-18" x="62.85" y="56.08" width="5.06" height="4.88" rx="0.4" ry="0.4" transform="translate(-5.93 7.39) rotate(-6.19)"/><rect class="cls-18" x="69.19" y="55.39" width="5.06" height="4.88" rx="0.4" ry="0.4" transform="translate(-5.81 8.07) rotate(-6.19)"/><rect class="cls-18" x="75.54" y="54.7" width="5.06" height="4.88" rx="0.4" ry="0.4" transform="translate(-5.7 8.75) rotate(-6.19)"/><rect class="cls-18" x="81.88" y="54.01" width="5.06" height="4.88" rx="0.4" ry="0.4" transform="translate(-5.59 9.43) rotate(-6.19)"/><rect class="cls-18" x="94.58" y="52.64" width="5.06" height="4.88" rx="0.4" ry="0.4" transform="translate(-5.37 10.79) rotate(-6.19)"/><rect class="cls-18" x="88.23" y="53.33" width="5.06" height="4.88" rx="0.4" ry="0.4" transform="translate(-5.48 10.11) rotate(-6.19)"/><rect class="cls-18" x="100.92" y="51.95" width="5.06" height="4.88" rx="0.4" ry="0.4" transform="translate(-5.26 11.47) rotate(-6.19)"/><rect class="cls-18" x="107.27" y="51.26" width="5.06" height="4.88" rx="0.4" ry="0.4" transform="translate(-5.15 12.15) rotate(-6.19)"/><rect class="cls-18" x="113.61" y="50.57" width="5.06" height="4.88" rx="0.4" ry="0.4" transform="translate(-5.04 12.83) rotate(-6.19)"/><rect class="cls-18" x="119.96" y="49.89" width="5.06" height="4.88" rx="0.4" ry="0.4" transform="translate(-4.93 13.51) rotate(-6.19)"/><rect class="cls-18" x="126.31" y="49.2" width="5.06" height="4.88" rx="0.4" ry="0.4" transform="translate(-4.81 14.19) rotate(-6.19)"/><rect class="cls-18" x="132.65" y="48.51" width="5.06" height="4.88" rx="0.4" ry="0.4" transform="translate(-4.7 14.87) rotate(-6.19)"/><rect class="cls-18" x="38.11" y="64.82" width="5.06" height="4.88" rx="0.4" ry="0.4" transform="translate(-7.01 4.77) rotate(-6.19)"/><rect class="cls-18" x="44.46" y="64.13" width="5.06" height="4.88" rx="0.4" ry="0.4" transform="translate(-6.9 5.45) rotate(-6.19)"/><rect class="cls-18" x="50.8" y="63.44" width="5.06" height="4.88" rx="0.4" ry="0.4" transform="translate(-6.79 6.13) rotate(-6.19)"/><rect class="cls-18" x="57.15" y="62.76" width="5.06" height="4.88" rx="0.4" ry="0.4" transform="translate(-6.68 6.81) rotate(-6.19)"/><rect class="cls-18" x="63.5" y="62.07" width="5.06" height="4.88" rx="0.4" ry="0.4" transform="translate(-6.57 7.49) rotate(-6.19)"/><rect class="cls-18" x="69.84" y="61.38" width="5.06" height="4.88" rx="0.4" ry="0.4" transform="translate(-6.46 8.17) rotate(-6.19)"/><rect class="cls-18" x="76.19" y="60.69" width="5.06" height="4.88" rx="0.4" ry="0.4" transform="translate(-6.35 8.85) rotate(-6.19)"/><rect class="cls-18" x="82.53" y="60" width="5.06" height="4.88" rx="0.4" ry="0.4" transform="translate(-6.23 9.53) rotate(-6.19)"/><rect class="cls-18" x="95.23" y="58.63" width="5.06" height="4.88" rx="0.4" ry="0.4" transform="translate(-6.01 10.89) rotate(-6.19)"/><rect class="cls-18" x="88.88" y="59.32" width="5.06" height="4.88" rx="0.4" ry="0.4" transform="translate(-6.12 10.21) rotate(-6.19)"/><rect class="cls-18" x="101.57" y="57.94" width="5.06" height="4.88" rx="0.4" ry="0.4" transform="translate(-5.9 11.57) rotate(-6.19)"/><rect class="cls-18" x="107.92" y="57.25" width="5.06" height="4.88" rx="0.4" ry="0.4" transform="translate(-5.79 12.25) rotate(-6.19)"/><rect class="cls-18" x="114.26" y="56.56" width="5.06" height="4.88" rx="0.4" ry="0.4" transform="translate(-5.68 12.93) rotate(-6.19)"/><rect class="cls-18" x="120.61" y="55.88" width="5.06" height="4.88" rx="0.4" ry="0.4" transform="translate(-5.57 13.61) rotate(-6.19)"/><rect class="cls-18" x="126.96" y="55.19" width="5.06" height="4.88" rx="0.4" ry="0.4" transform="translate(-5.46 14.29) rotate(-6.19)"/><rect class="cls-18" x="133.3" y="54.5" width="5.06" height="4.88" rx="0.4" ry="0.4" transform="translate(-5.35 14.97) rotate(-6.19)"/><rect class="cls-18" x="38.76" y="70.81" width="5.06" height="4.88" rx="0.4" ry="0.4" transform="translate(-7.65 4.88) rotate(-6.19)"/><rect class="cls-18" x="45.11" y="70.12" width="5.06" height="4.88" rx="0.4" ry="0.4" transform="translate(-7.54 5.56) rotate(-6.19)"/><rect class="cls-18" x="51.45" y="69.43" width="5.06" height="4.88" rx="0.4" ry="0.4" transform="translate(-7.43 6.24) rotate(-6.19)"/><rect class="cls-18" x="57.8" y="68.75" width="5.06" height="4.88" rx="0.4" ry="0.4" transform="translate(-7.32 6.92) rotate(-6.19)"/><rect class="cls-18" x="64.15" y="68.06" width="5.06" height="4.88" rx="0.4" ry="0.4" transform="translate(-7.21 7.6) rotate(-6.19)"/><rect class="cls-18" x="70.49" y="67.37" width="5.06" height="4.88" rx="0.4" ry="0.4" transform="translate(-7.1 8.28) rotate(-6.19)"/><rect class="cls-18" x="76.84" y="66.68" width="5.06" height="4.88" rx="0.4" ry="0.4" transform="translate(-6.99 8.96) rotate(-6.19)"/><rect class="cls-18" x="83.18" y="65.99" width="5.06" height="4.88" rx="0.4" ry="0.4" transform="translate(-6.88 9.64) rotate(-6.19)"/><rect class="cls-18" x="95.88" y="64.62" width="5.06" height="4.88" rx="0.4" ry="0.4" transform="translate(-6.65 11) rotate(-6.19)"/><rect class="cls-18" x="89.53" y="65.31" width="5.06" height="4.88" rx="0.4" ry="0.4" transform="translate(-6.77 10.32) rotate(-6.19)"/><rect class="cls-18" x="102.22" y="63.93" width="5.06" height="4.88" rx="0.4" ry="0.4" transform="translate(-6.54 11.68) rotate(-6.19)"/><rect class="cls-18" x="108.57" y="63.24" width="5.06" height="4.88" rx="0.4" ry="0.4" transform="translate(-6.43 12.36) rotate(-6.19)"/><rect class="cls-18" x="114.91" y="62.55" width="5.06" height="4.88" rx="0.4" ry="0.4" transform="translate(-6.32 13.04) rotate(-6.19)"/><rect class="cls-18" x="121.26" y="61.87" width="5.06" height="4.88" rx="0.4" ry="0.4" transform="translate(-6.21 13.72) rotate(-6.19)"/><rect class="cls-18" x="127.61" y="61.18" width="5.06" height="4.88" rx="0.4" ry="0.4" transform="translate(-6.1 14.4) rotate(-6.19)"/><rect class="cls-18" x="133.95" y="60.49" width="5.06" height="4.88" rx="0.4" ry="0.4" transform="translate(-5.99 15.08) rotate(-6.19)"/><rect class="cls-18" x="39.41" y="76.8" width="5.06" height="4.88" rx="0.4" ry="0.4" transform="translate(-8.3 4.98) rotate(-6.19)"/><rect class="cls-18" x="45.76" y="76.11" width="5.06" height="4.88" rx="0.4" ry="0.4" transform="translate(-8.18 5.66) rotate(-6.19)"/><rect class="cls-18" x="52.1" y="75.42" width="5.06" height="4.88" rx="0.4" ry="0.4" transform="translate(-8.07 6.34) rotate(-6.19)"/><rect class="cls-18" x="58.45" y="74.74" width="5.06" height="4.88" rx="0.4" ry="0.4" transform="translate(-7.96 7.02) rotate(-6.19)"/><rect class="cls-18" x="64.79" y="74.05" width="5.06" height="4.88" rx="0.4" ry="0.4" transform="translate(-7.85 7.7) rotate(-6.19)"/><rect class="cls-18" x="71.14" y="73.36" width="5.06" height="4.88" rx="0.4" ry="0.4" transform="translate(-7.74 8.38) rotate(-6.19)"/><rect class="cls-18" x="77.49" y="72.67" width="5.06" height="4.88" rx="0.4" ry="0.4" transform="translate(-7.63 9.06) rotate(-6.19)"/><rect class="cls-18" x="83.83" y="71.99" width="5.06" height="4.88" rx="0.4" ry="0.4" transform="matrix(0.99, -0.11, 0.11, 0.99, -7.52, 9.74)"/><rect class="cls-18" x="96.52" y="70.61" width="5.06" height="4.88" rx="0.4" ry="0.4" transform="translate(-7.3 11.1) rotate(-6.19)"/><rect class="cls-18" x="90.18" y="71.3" width="5.06" height="4.88" rx="0.4" ry="0.4" transform="translate(-7.41 10.42) rotate(-6.19)"/><rect class="cls-18" x="102.87" y="69.92" width="5.06" height="4.88" rx="0.4" ry="0.4" transform="translate(-7.18 11.78) rotate(-6.19)"/><rect class="cls-18" x="109.22" y="69.23" width="5.06" height="4.88" rx="0.4" ry="0.4" transform="translate(-7.07 12.46) rotate(-6.19)"/><rect class="cls-18" x="115.56" y="68.55" width="5.06" height="4.88" rx="0.4" ry="0.4" transform="translate(-6.96 13.14) rotate(-6.19)"/><rect class="cls-18" x="121.91" y="67.86" width="5.06" height="4.88" rx="0.4" ry="0.4" transform="translate(-6.85 13.82) rotate(-6.19)"/><rect class="cls-18" x="128.26" y="67.17" width="5.06" height="4.88" rx="0.4" ry="0.4" transform="translate(-6.74 14.5) rotate(-6.19)"/><rect class="cls-18" x="134.6" y="66.48" width="5.06" height="4.88" rx="0.4" ry="0.4" transform="translate(-6.63 15.18) rotate(-6.19)"/><rect class="cls-18" x="40.06" y="82.79" width="5.06" height="4.88" rx="0.4" ry="0.4" transform="translate(-8.94 5.09) rotate(-6.19)"/><rect class="cls-18" x="46.41" y="82.1" width="5.06" height="4.88" rx="0.4" ry="0.4" transform="translate(-8.83 5.77) rotate(-6.19)"/><rect class="cls-18" x="52.75" y="81.42" width="5.06" height="4.88" rx="0.4" ry="0.4" transform="translate(-8.72 6.45) rotate(-6.19)"/><rect class="cls-18" x="59.1" y="80.73" width="5.06" height="4.88" rx="0.4" ry="0.4" transform="translate(-8.6 7.13) rotate(-6.19)"/><rect class="cls-18" x="65.44" y="80.04" width="5.06" height="4.88" rx="0.4" ry="0.4" transform="translate(-8.49 7.81) rotate(-6.19)"/><rect class="cls-18" x="71.79" y="79.35" width="5.06" height="4.88" rx="0.4" ry="0.4" transform="translate(-8.38 8.49) rotate(-6.19)"/><rect class="cls-18" x="78.14" y="78.66" width="5.06" height="4.88" rx="0.4" ry="0.4" transform="translate(-8.27 9.17) rotate(-6.19)"/><rect class="cls-18" x="84.48" y="77.98" width="5.06" height="4.88" rx="0.4" ry="0.4" transform="translate(-8.16 9.85) rotate(-6.19)"/><rect class="cls-18" x="97.17" y="76.6" width="5.06" height="4.88" rx="0.4" ry="0.4" transform="translate(-7.94 11.21) rotate(-6.19)"/><rect class="cls-18" x="90.83" y="77.29" width="5.06" height="4.88" rx="0.4" ry="0.4" transform="translate(-8.05 10.53) rotate(-6.19)"/><rect class="cls-18" x="103.52" y="75.91" width="5.06" height="4.88" rx="0.4" ry="0.4" transform="translate(-7.83 11.89) rotate(-6.19)"/><rect class="cls-18" x="109.87" y="75.22" width="5.06" height="4.88" rx="0.4" ry="0.4" transform="translate(-7.72 12.57) rotate(-6.19)"/><rect class="cls-18" x="116.21" y="74.54" width="5.06" height="4.88" rx="0.4" ry="0.4" transform="translate(-7.6 13.25) rotate(-6.19)"/><rect class="cls-18" x="122.56" y="73.85" width="5.06" height="4.88" rx="0.4" ry="0.4" transform="translate(-7.49 13.93) rotate(-6.19)"/><rect class="cls-18" x="128.9" y="73.16" width="5.06" height="4.88" rx="0.4" ry="0.4" transform="translate(-7.38 14.61) rotate(-6.19)"/><rect class="cls-18" x="135.25" y="72.47" width="5.06" height="4.88" rx="0.4" ry="0.4" transform="translate(-7.27 15.29) rotate(-6.19)"/><rect class="cls-18" x="40.71" y="88.78" width="5.06" height="4.88" rx="0.4" ry="0.4" transform="translate(-9.58 5.19) rotate(-6.19)"/><rect class="cls-18" x="47.06" y="88.09" width="5.06" height="4.88" rx="0.4" ry="0.4" transform="translate(-9.47 5.87) rotate(-6.19)"/><rect class="cls-18" x="53.4" y="87.41" width="5.06" height="4.88" rx="0.4" ry="0.4" transform="translate(-9.36 6.55) rotate(-6.19)"/><rect class="cls-18" x="59.75" y="86.72" width="5.06" height="4.88" rx="0.4" ry="0.4" transform="translate(-9.25 7.23) rotate(-6.19)"/><rect class="cls-18" x="66.09" y="86.03" width="5.06" height="4.88" rx="0.4" ry="0.4" transform="translate(-9.14 7.91) rotate(-6.19)"/><rect class="cls-18" x="72.44" y="85.34" width="5.06" height="4.88" rx="0.4" ry="0.4" transform="translate(-9.02 8.59) rotate(-6.19)"/><rect class="cls-18" x="78.79" y="84.65" width="5.06" height="4.88" rx="0.4" ry="0.4" transform="translate(-8.91 9.27) rotate(-6.19)"/><rect class="cls-18" x="85.13" y="83.97" width="5.06" height="4.88" rx="0.4" ry="0.4" transform="translate(-8.8 9.95) rotate(-6.19)"/><rect class="cls-18" x="97.82" y="82.59" width="5.06" height="4.88" rx="0.4" ry="0.4" transform="translate(-8.58 11.31) rotate(-6.19)"/><rect class="cls-18" x="91.48" y="83.28" width="5.06" height="4.88" rx="0.4" ry="0.4" transform="translate(-8.69 10.63) rotate(-6.19)"/><rect class="cls-18" x="104.17" y="81.9" width="5.06" height="4.88" rx="0.4" ry="0.4" transform="translate(-8.47 11.99) rotate(-6.19)"/><rect class="cls-18" x="110.52" y="81.21" width="5.06" height="4.88" rx="0.4" ry="0.4" transform="translate(-8.36 12.67) rotate(-6.19)"/><rect class="cls-18" x="116.86" y="80.53" width="5.06" height="4.88" rx="0.4" ry="0.4" transform="translate(-8.25 13.35) rotate(-6.19)"/><rect class="cls-18" x="123.21" y="79.84" width="5.06" height="4.88" rx="0.4" ry="0.4" transform="translate(-8.14 14.03) rotate(-6.19)"/><rect class="cls-18" x="129.55" y="79.15" width="5.06" height="4.88" rx="0.4" ry="0.4" transform="translate(-8.02 14.71) rotate(-6.19)"/><rect class="cls-18" x="135.9" y="78.46" width="5.06" height="4.88" rx="0.4" ry="0.4" transform="translate(-7.91 15.39) rotate(-6.19)"/><path class="cls-9" d="M45.19,103.9l-3.85-3.1-.11-1L44.34,96l1-.1L49.17,99l.11,1-3.1,3.85Z"/><rect class="cls-17" x="43.64" y="98.24" width="3.26" height="3.26" rx="1.63" ry="1.63" transform="translate(151.42 127.34) rotate(128.89)"/><circle class="cls-3" cx="19.84" cy="111.9" r="12.16"/><path class="cls-19" d="M25.64,106.9a.84.84,0,0,0,1.09.34l-.07.76a.31.31,0,0,0,.05.18.27.27,0,0,0,.18.1.24.24,0,0,0,.2,0l1-.76a.27.27,0,0,0,.05-.37.26.26,0,0,0-.37,0l-.53.39,0-.71a.2.2,0,0,0,0-.18.27.27,0,0,0-.18-.11.25.25,0,0,0-.2.06l-.2.14a.42.42,0,0,1-.33.11.43.43,0,0,1-.25-.19c-.16-.22-.11-.42.13-.6a.62.62,0,0,1,.55-.1.3.3,0,0,0,.27,0,.27.27,0,0,0,.05-.38.22.22,0,0,0-.13-.1l-.07,0a1.19,1.19,0,0,0-1,.22,1.07,1.07,0,0,0-.47.66A.83.83,0,0,0,25.64,106.9Z"/><path class="cls-19" d="M16.05,104.67a.29.29,0,0,0,.14.15.27.27,0,0,0,.2,0,.26.26,0,0,0,.15-.14.27.27,0,0,0,0-.2l-.36-1.08a1.61,1.61,0,0,1,.43.3c.38.32.86.71,1.37.54a.87.87,0,0,0,.53-1.21,1,1,0,0,0-.61-.65l-.19,0h-.12a.32.32,0,0,0-.16.14.26.26,0,0,0,0,.21.27.27,0,0,0,.23.2.4.4,0,0,1,.36.29.36.36,0,0,1-.21.5c-.3.1-.59-.13-.89-.38a1.26,1.26,0,0,0-1.18-.44.26.26,0,0,0-.16.13.28.28,0,0,0,0,.2Z"/><path class="cls-19" d="M10.25,111.1a.31.31,0,0,0,.28.28.25.25,0,0,0,.17-.06l.13-.09V113a.28.28,0,0,0,.09.2.3.3,0,0,0,.2.08.27.27,0,0,0,.29-.29v-2.28a.3.3,0,0,0-.2-.28h-.09a.29.29,0,0,0-.17.06l-.57.37A.28.28,0,0,0,10.25,111.1Z"/><path class="cls-19" d="M24.59,115.39A1.8,1.8,0,0,0,27.1,115a.17.17,0,0,1,.26.2,1.8,1.8,0,0,0,.41,2.5.17.17,0,0,1-.19.27,1.8,1.8,0,0,0-2.51.41.17.17,0,0,1-.27-.19,1.8,1.8,0,0,0-.4-2.51A.17.17,0,0,1,24.59,115.39Z"/><path class="cls-19" d="M25.21,114.18h0a.36.36,0,0,1,.08.49h0a.16.16,0,0,0,0,.23.17.17,0,0,0,.23,0h0a.35.35,0,0,1,.49-.08h0a.16.16,0,0,0,.23,0,.16.16,0,0,0,0-.22h0a.34.34,0,0,1-.08-.49h0a.17.17,0,0,0,0-.23.16.16,0,0,0-.22,0h0a.36.36,0,0,1-.5.08h0a.16.16,0,0,0-.22,0A.16.16,0,0,0,25.21,114.18Z"/><path class="cls-19" d="M26.09,118.81h0a.24.24,0,0,1,.05.35h0a.14.14,0,0,0,0,.17.12.12,0,0,0,.16,0h0a.25.25,0,0,1,.35-.06h0a.12.12,0,0,0,.17,0,.14.14,0,0,0,0-.17h0a.25.25,0,0,1-.06-.35h0a.11.11,0,0,0,0-.16.12.12,0,0,0-.17,0h0a.24.24,0,0,1-.35.05h0a.12.12,0,0,0-.16,0A.11.11,0,0,0,26.09,118.81Z"/><path class="cls-19" d="M16.38,117.32l-1,3.1a.35.35,0,0,0,.23.44l2.3.74a.35.35,0,0,0,.45-.23l1-3.1a.36.36,0,0,0-.23-.45l-2.3-.73A.34.34,0,0,0,16.38,117.32ZM17,119.6l-.09.29.29.09a.07.07,0,0,1,0,.08l-.08.24a.05.05,0,0,1-.07,0l-.3-.09-.09.29a.06.06,0,0,1-.07,0l-.24-.08a.05.05,0,0,1,0-.07l.09-.3-.29-.09a.06.06,0,0,1,0-.07l.08-.25a.05.05,0,0,1,.07,0l.29.09.1-.29a.06.06,0,0,1,.07,0l.25.08A.05.05,0,0,1,17,119.6Zm1.22-.7a.29.29,0,1,1-.36.18A.28.28,0,0,1,18.24,118.9Zm-.43-.84a.3.3,0,0,1,.19.37.29.29,0,0,1-.37.18.3.3,0,0,1-.19-.36A.29.29,0,0,1,17.81,118.06Z"/><circle class="cls-5" cx="168.38" cy="86.66" r="4.66"/><circle class="cls-3" cx="168.38" cy="86.66" r="3.29"/><circle class="cls-5" cx="127.38" cy="121.76" r="4.66"/><circle class="cls-3" cx="127.38" cy="121.76" r="3.29"/><circle class="cls-20" cx="21.38" cy="21.78" r="4.66"/></svg>